<svg width="364" height="487" viewBox="0 0 364 487" fill="none" xmlns="http://www.w3.org/2000/svg">
<path d="M3 423H328V17L73.598 126.29L3 423Z" fill="white" stroke="black" stroke-width="4"/>
<path fill-rule="evenodd" clip-rule="evenodd" d="M275.373 265.441C272.603 254.704 270.056 250.151 265.135 246.419C260.533 242.928 253.815 239.996 244.012 237.855C233.802 236.071 233.512 230.767 230.952 222.242C230.205 219.679 226.504 218.997 224.907 220.845C224.682 220.602 224.447 220.379 224.204 220.178C224.421 218.956 222.641 215.453 222.7 214.284C223.321 202.081 219.328 195.953 209.36 193.675C207.193 193.179 192.469 192.888 190.356 193.472C181.116 196.025 172.02 204.132 173.412 213.897C170.512 217.686 167.673 219.998 163.198 221.219C156.23 222.103 159.73 320.774 171.833 379.888C177.025 405.251 301.186 362.082 295.576 349.379C296.371 347.05 294.921 344.491 295.576 342.087C296.049 340.347 297.262 339.627 297.872 337.904C298.731 335.479 297.797 332.226 296.83 329.752C296.434 328.519 297.559 327.192 297.872 325.933C299.356 319.998 295.958 320.521 293.509 316.553C293.545 316.541 294.182 313.709 294.18 313.723C294.555 311.701 293.615 309.11 292.795 307.422C292.242 306.281 291.055 305.567 289.876 305.698C291.063 301.669 292.565 298.317 294.18 294.436C297.035 287.594 299.751 280.438 303.851 274.245C305.53 271.709 304.174 269.377 301.457 269.204C292.661 268.646 283.962 267.38 275.373 265.441Z" fill="#D08B5B"/>
<path fill-rule="evenodd" clip-rule="evenodd" d="M261.642 266.271L241.565 300.233C241.565 300.233 246.328 300.708 248.255 301.634C250.183 302.559 259.033 313.806 259.033 313.806L260.439 319.998L257.107 324.991L258.407 328.126C258.407 328.126 259.334 326.002 261.642 324.353C263.951 322.705 269.041 319.998 269.041 319.998C269.041 319.998 267.349 319.094 267.349 318.032C267.349 316.97 265.859 312.439 269.041 310.727C272.223 309.016 288.664 305.01 288.664 305.01L305.327 269.878L261.642 266.271Z" fill="#EC7495"/>
<path fill-rule="evenodd" clip-rule="evenodd" d="M172.078 221.449L235.83 232.633L265.135 246.419L269.919 250.103L241.565 300.233L197.784 308.218L186.63 337.177L188.907 369.82L260.13 361.332L290.852 357.683L298.074 386.826L296.769 398.815L294.872 404.894L218.709 425.447C218.709 425.447 179.926 421.69 173.051 421.69C166.176 421.69 115.77 426.693 115.77 426.693L104.108 425.447C104.108 425.447 78.3041 398.264 74.302 388.589C70.3 378.914 61.6458 320.104 61.6458 320.104L62.5987 311.068L84.8922 253.722C84.8922 253.722 87.8692 251.02 91.6224 246.419C95.3757 241.818 172.078 221.449 172.078 221.449Z" fill="#9DDADB"/>
<path fill-rule="evenodd" clip-rule="evenodd" d="M287.462 304.286C281.701 304.579 275.933 305.948 270.721 308.429C268.589 309.445 266.657 310.913 266.091 313.328C265.805 314.56 265.875 315.834 266.027 317.08C266.142 318.023 266.171 319.227 266.991 319.865C267.13 319.973 267.28 320.056 267.435 320.116C265.513 320.984 263.682 322.026 262.055 323.099C260.568 324.081 259.04 325.593 258.353 327.299C258.296 327.105 258.239 326.924 258.182 326.753C257.012 323.297 255.21 320.466 252.373 318.563C252.05 317.389 248.592 312.337 245.379 312.527C241.862 312.734 239.032 312.991 235.851 314.608C234.691 314.582 233.534 314.598 232.39 314.649C232.193 314.655 232.203 314.923 232.39 314.944C233.318 315.062 234.246 315.192 235.174 315.345C237.38 315.698 239.579 316.145 241.73 316.701C244.31 317.369 246.98 318.039 249.392 319.205C254.069 321.47 256.964 327.391 256.37 332.544C256.272 333.389 255.944 335.943 254.771 335.679C253.78 335.457 253.386 333.389 253.04 332.623C252.112 330.59 250.44 329.262 248.435 328.363C246.08 327.305 243.56 326.591 241.12 325.759C239.738 325.285 238.355 324.812 236.97 324.341C235.552 323.856 234.205 323.185 232.696 323.525C231.783 323.731 231.679 324.818 232.19 325.441C232.969 326.39 234.126 326.67 235.247 327.061C236.728 327.575 238.206 328.09 239.684 328.605C241.968 329.399 244.361 330.069 246.589 331.041L246.519 331.2C246.338 331.149 246.125 331.33 246.16 331.553C246.494 333.608 246.958 335.984 246.442 338.043C246.036 339.676 244.602 341.484 242.741 341.004C243.033 340.737 243.141 340.276 242.944 339.85C242.206 338.275 232.546 332.055 231.685 334.364C231.656 334.447 231.745 334.507 231.815 334.495C232.549 334.342 233.779 335.594 234.367 335.991C235.215 336.563 236.076 337.122 236.916 337.709C237.834 338.351 238.73 339.025 239.604 339.72C240.29 340.267 240.808 340.835 241.596 341.112C241.183 341.309 240.856 341.674 240.716 342.141C240.36 343.358 239.674 344.39 238.482 344.927C237.233 345.486 235.826 345.133 234.51 345.27C232.718 345.451 231.154 346.303 229.848 347.519C227.106 350.08 225.73 354.591 221.894 355.801C219.603 356.522 217.061 356.068 214.741 355.741C212.151 355.375 209.628 355.086 207.019 355.467C204.521 355.833 202.16 356.697 199.878 357.752C197.74 358.74 195.375 359.858 193.478 361.332C193.087 360.128 192.693 358.937 192.394 357.707C191.689 354.801 191.308 351.84 191.215 348.853C191.13 346.011 191.289 343.155 191.533 340.324C191.654 338.91 191.845 337.503 191.965 336.089C191.997 335.733 192.061 335.352 192.108 334.971C195.496 332.973 199.055 331.442 202.643 329.866C202.652 329.863 202.662 329.856 202.671 329.853C202.783 329.802 202.891 329.755 203.002 329.707C202.999 329.701 202.996 329.695 202.989 329.688C203.399 329.437 203.685 329.103 203.857 328.729C209.027 325.301 213.349 320.622 216.571 315.164C217.922 312.876 219.222 310.503 220.988 308.499C222.87 306.361 225.104 305.09 227.868 304.429C231.1 303.655 234.431 303.19 237.742 302.927C239.55 302.784 241.571 302.561 243.541 302.571C244.914 302.58 246.258 302.698 247.491 303.038C249.319 303.54 250.386 304.928 251.534 306.332C252.63 307.68 253.72 309.03 254.743 310.434C255.712 311.765 256.628 313.14 257.422 314.582C257.899 315.446 258.34 316.336 258.712 317.254C258.843 317.578 259.014 317.947 259.094 318.283C259.173 318.623 259.027 318.982 259.408 318.982C257.835 319.004 256.79 322.925 258.353 322.833C260.552 322.706 261.657 320.071 261.226 317.734C260.457 313.563 256.307 308.527 255.486 307.46C253.672 305.103 251.801 302.028 248.896 300.932C248.855 300.916 248.81 300.9 248.769 300.887C249.614 300.087 250.282 299.128 250.92 298.152C251.578 297.148 252.363 295.998 252.579 294.807C252.716 294.048 251.772 293.616 251.324 294.28C250.672 295.248 250.358 296.475 249.872 297.539C249.376 298.619 248.772 299.639 248.295 300.728C247.148 300.376 245.909 300.214 244.647 300.16C246.239 298.006 248.959 293.851 249.287 293.317C250.793 290.845 252.226 288.298 253.596 285.747C255.077 282.983 256.345 280.105 257.762 277.309C258.566 275.724 259.376 274.126 260.269 272.589C260.578 272.061 260.908 271.534 261.283 271.054C261.356 270.959 261.448 270.88 261.534 270.79C261.633 270.736 261.734 270.676 261.792 270.645C262.306 270.349 262.488 269.663 262.849 269.227C263.428 268.526 264.108 268.443 264.979 268.433C266.834 268.414 268.697 268.487 270.55 268.538C273.273 268.614 275.993 268.722 278.713 268.865C279.537 268.91 280.356 268.954 281.179 269.005C285.136 269.241 289.089 269.548 293.033 269.927C296.522 270.26 300.011 270.803 303.504 271.064C298.775 282.294 293.532 293.32 287.595 303.963C287.535 304.07 287.49 304.178 287.462 304.286ZM261.226 333.217C260.463 333.567 259.723 334.002 259.033 334.498C259.148 333.726 259.176 332.912 259.144 332.096C259.713 332.706 260.441 333.055 261.226 333.217ZM293.783 313.9C293.729 313.906 293.678 313.934 293.652 313.988C292.597 316.164 293.039 318.595 294.761 320.301C295.664 321.19 297.631 322.194 297.567 323.655C297.513 324.837 296.226 325.828 295.677 326.803C295.165 327.712 294.974 328.709 295.384 329.695C295.909 330.955 297.374 331.457 297.876 332.697C298.511 334.269 297.478 336.166 296.754 337.535C296.08 338.802 295.209 340.07 294.631 341.41C290.757 343.415 281.968 347.055 280.909 347.259C279.619 347.51 278.326 347.748 277.029 347.971C274.541 348.402 272.046 348.803 269.545 349.155C268.122 349.355 266.695 349.552 265.268 349.708C264.022 349.841 262.618 350.022 261.614 349.086C259.589 347.192 260.724 344.018 262.005 342.106C262.03 342.068 262.03 342.033 262.02 342.001C263.228 341.718 264.432 341.388 265.634 341.156C267.944 340.711 270.27 340.337 272.599 340.003C277.385 339.32 282.203 338.869 287.014 338.415C288.205 338.3 288.218 336.426 287.014 336.537C280.102 337.17 273.155 337.77 266.336 339.101C264.626 339.431 262.929 339.806 261.242 340.228C260.444 340.426 259.589 340.734 258.754 340.743C258.703 340.743 258.652 340.743 258.601 340.74C256.965 340.689 256.726 339.288 257.625 338.123C257.737 337.979 257.851 337.836 257.969 337.7C259.558 335.806 261.537 334.542 263.577 333.233C265.862 332.922 268.141 332.229 270.378 331.721C275.901 330.463 281.424 329.205 286.95 327.95C288.034 327.702 287.573 326.038 286.49 326.282C282.295 327.233 278.1 328.182 273.905 329.132L267.766 330.524C266.539 330.8 265.007 331.356 263.565 331.556C262.853 331.654 262.163 331.667 261.541 331.521C259.529 331.045 259.427 328.532 260.295 327.038C261.267 325.361 263.104 324.313 264.734 323.363C267.559 321.714 270.566 320.529 273.502 319.163C274.023 319.049 274.544 318.935 275.065 318.82C278.097 318.153 281.561 317.826 284.414 316.603C285.269 316.241 284.802 314.894 283.957 314.913C281.742 314.961 279.425 315.748 277.261 316.215C274.919 316.723 272.574 317.229 270.232 317.734C269.997 317.785 268.605 318.229 268.395 318.131C268.262 318.067 268.214 317.604 268.169 317.298C268.026 316.295 267.922 315.24 268.077 314.233C268.421 311.974 270.305 310.913 272.212 310.046C276.457 308.118 281.113 306.911 285.746 306.428C286.814 306.316 287.881 306.247 288.956 306.212C290.217 306.173 291.256 305.951 291.895 307.193C292.899 309.15 293.452 311.666 293.783 313.9ZM287.887 384.851C286.961 381.653 287.213 378.238 286.58 374.975C286.253 373.292 285.806 371.623 285.319 369.98C284.925 368.652 284.269 367.241 284.195 365.856C284.19 365.763 284.299 365.71 284.374 365.752C285.679 366.499 286.682 368.115 287.426 369.382C288.317 370.899 288.997 372.488 289.546 374.158C290.64 377.485 291.538 381.498 290.127 384.851C289.707 385.849 288.233 386.049 287.887 384.851ZM251.784 409.063C250.405 408.102 249.401 406.757 248.232 405.571C247.082 404.404 248.879 402.607 250.03 403.774C251.027 404.786 251.893 406.05 253.067 406.869C253.632 407.262 253.893 407.974 253.523 408.607C253.196 409.166 252.347 409.456 251.784 409.063ZM244.096 372.102C246.613 371.015 249.088 369.83 251.721 369.047C253.295 368.578 253.962 371.031 252.397 371.497C249.972 372.219 247.697 373.295 245.379 374.297C243.892 374.94 242.599 372.749 244.096 372.102ZM217.52 371.341C216.905 369.823 219.365 369.169 219.972 370.666C220.67 372.388 221.47 374.067 222.168 375.789C222.783 377.307 220.323 377.961 219.717 376.465C219.019 374.742 218.218 373.064 217.52 371.341ZM191.289 401.654C190.879 402.2 190.195 402.496 189.55 402.11C189.009 401.786 188.679 400.924 189.094 400.371C190.305 398.757 191.533 397.162 192.953 395.722C194.104 394.555 195.901 396.354 194.751 397.519C193.483 398.805 192.371 400.212 191.289 401.654ZM187.538 231.572C188.705 232.369 189.727 233.337 190.724 234.332C191.883 235.49 190.085 237.287 188.926 236.129C188.086 235.29 187.239 234.438 186.255 233.766C185.686 233.378 185.431 232.656 185.799 232.028C186.128 231.465 186.971 231.185 187.538 231.572ZM225.701 272.469C225.041 273.789 224.447 275.084 224.41 276.585C224.37 278.22 221.827 278.221 221.868 276.585C221.916 274.621 222.641 272.917 223.506 271.186C224.237 269.721 226.429 271.009 225.701 272.469ZM239.703 239.623C241.07 238.712 242.341 240.915 240.986 241.818C239.888 242.549 238.79 243.281 237.691 244.013C236.325 244.924 235.054 242.722 236.408 241.819C237.506 241.087 238.605 240.355 239.703 239.623ZM178.97 297.051C178.737 298.666 176.287 297.975 176.518 296.375C176.876 293.903 177.312 291.464 177.983 289.056C178.422 287.48 180.874 288.153 180.434 289.731C179.764 292.139 179.327 294.579 178.97 297.051ZM170.057 326.163C168.42 326.128 168.42 323.587 170.057 323.621C171.537 323.653 172.993 324.042 174.422 324.399C176.011 324.795 175.333 327.246 173.746 326.849C172.538 326.548 171.309 326.189 170.057 326.163ZM166.766 384.806C166.204 385.079 165.627 385.326 165.059 385.586C163.921 386.106 162.784 386.626 161.647 387.148C159.278 388.235 156.911 389.326 154.545 390.42C149.81 392.611 145.039 394.725 140.293 396.892C135.452 399.103 130.625 401.342 125.804 403.593C123.532 404.654 121.243 405.675 118.959 406.707C117.006 407.59 114.592 409.133 112.448 409.278C112.338 409.286 112.301 409.146 112.364 409.075C113.174 408.154 114.466 407.618 115.53 407.02C116.618 406.408 117.726 405.832 118.828 405.249C121.127 404.031 123.429 402.823 125.75 401.649C130.393 399.3 135.044 396.968 139.697 394.639C144.442 392.264 149.181 389.873 153.968 387.582C156.222 386.503 158.478 385.428 160.735 384.356C161.958 383.775 163.181 383.195 164.405 382.617C164.933 382.367 165.456 382.097 165.996 381.873C166.714 381.576 167.26 381.637 168 381.454C169.208 381.156 169.731 382.691 168.804 383.359C168.04 383.91 167.639 384.381 166.766 384.806ZM149.795 410.865C149.534 410.232 150.08 409.461 150.682 409.302C151.404 409.112 151.983 409.551 152.246 410.19C152.943 411.884 153.936 413.44 155.214 414.753C156.356 415.926 154.559 417.724 153.416 416.55C151.815 414.904 150.664 412.98 149.795 410.865ZM137.309 370.072C136.15 368.914 137.948 367.117 139.106 368.275L142.401 371.569C143.56 372.727 141.762 374.524 140.603 373.366L137.309 370.072ZM103.506 364.702C101.137 365.397 98.3746 366.035 96.7596 368.055C96.6808 368.154 96.5483 368.027 96.5956 367.929C98.6631 363.644 104.592 362.141 108.697 360.64C111.601 359.578 114.58 358.698 117.584 357.911C117.284 354.485 118.112 350.813 118.4 347.404C118.708 343.764 118.958 340.114 119.086 336.463C119.217 332.738 119.249 328.988 119.126 325.262C119.004 321.55 118.522 317.884 118.311 314.184C118.291 313.826 118.789 313.809 118.897 314.105C120.144 317.538 120.677 321.341 121.083 324.961C121.501 328.69 121.64 332.409 121.587 336.159C121.532 340.016 121.307 343.863 120.999 347.708C120.854 349.53 120.684 351.349 120.524 353.17C120.402 354.56 120.346 355.938 120.062 357.284C121.874 356.839 123.69 356.419 125.501 356.01C131.274 354.708 137.071 353.499 142.819 352.091C145.641 351.4 148.423 350.572 151.232 349.837C153.877 349.145 156.669 348.305 159.385 347.997C160.354 347.886 160.477 349.211 159.836 349.661C157.628 351.211 154.697 352.289 152.147 353.157C149.589 354.027 146.929 354.653 144.306 355.298C138.837 356.642 133.316 357.742 127.803 358.887C122.298 360.031 116.782 361.166 111.338 362.578C108.717 363.258 106.105 363.94 103.506 364.702ZM90.5257 296.712C89.1103 297.543 87.8325 295.345 89.2428 294.517C91.0882 293.435 93.0549 292.621 95.0376 291.828C96.5591 291.219 97.2137 293.678 95.7135 294.279C93.9317 294.991 92.1839 295.739 90.5257 296.712ZM85.4005 391.131C83.9813 391.953 82.7025 389.756 84.1176 388.936C86.105 387.785 88.2815 387.016 90.3411 386.009C91.8063 385.291 93.0934 387.484 91.6239 388.203C89.5647 389.211 87.3879 389.979 85.4005 391.131ZM83.0953 337.534C84.4675 338.837 86.2989 339.451 88.0257 340.135C89.5313 340.732 88.871 343.189 87.3498 342.586C85.1984 341.733 83.007 340.954 81.2976 339.331C80.1085 338.202 81.9094 336.408 83.0953 337.534ZM98.2761 264.746C99.7846 265.338 99.1239 267.795 97.6001 267.197C95.9102 266.535 94.1649 266.03 92.475 265.367C90.9668 264.776 91.6271 262.319 93.1509 262.916C94.8408 263.579 96.5861 264.084 98.2761 264.746ZM125.056 235.835C126.659 235.565 127.342 238.014 125.732 238.286C123.735 238.623 121.769 239.017 119.875 239.75C118.346 240.341 117.689 237.883 119.199 237.299C121.093 236.567 123.06 236.172 125.056 235.835ZM133.905 306.227C132.435 305.505 133.725 303.314 135.188 304.033C136.73 304.791 138.327 305.376 140.01 305.734C141.612 306.076 140.929 308.525 139.334 308.185C137.44 307.782 135.639 307.079 133.905 306.227ZM142.262 266.576C143.845 266.143 144.514 268.595 142.938 269.027C140.166 269.786 137.311 270.181 134.518 270.857C132.926 271.242 132.253 268.791 133.842 268.406C136.635 267.73 139.49 267.336 142.262 266.576ZM177.716 254.133C179.325 254.431 178.64 256.88 177.04 256.584C175.338 256.269 173.613 256.264 171.887 256.263C170.249 256.263 170.251 253.721 171.887 253.722C173.848 253.723 175.783 253.776 177.716 254.133ZM293.344 267.411C289.191 267.014 285.031 266.696 280.865 266.458C280.671 266.448 280.48 266.435 280.286 266.426C280.264 266.381 280.236 266.34 280.207 266.295C278.847 264.3 277.846 262.306 276.978 260.05C276.149 257.902 275.345 255.688 274.068 253.751C272.61 251.543 270.643 249.815 268.488 248.318C267.18 249.197 265.966 250.226 264.856 251.317C263.687 252.465 261.889 250.668 263.058 249.52C264.045 248.55 265.098 247.655 266.211 246.846C264.926 246.065 263.614 245.331 262.335 244.601C257.539 241.866 252.63 239.337 247.619 237.025C245.289 235.948 242.931 234.991 240.557 234.022C239.28 233.502 238.018 232.831 236.741 232.228C236.833 231.325 236.563 230.315 235.87 229.721C235.359 229.286 234.961 229.124 234.351 228.816C234.215 228.768 234.132 228.739 234.094 228.724C234.122 228.73 234.205 228.755 234.341 228.8C234.666 228.949 234.691 228.905 234.418 228.67C234.402 228.155 233.388 227.069 233.156 226.538C232.349 224.718 232.098 222.793 230.906 221.134C229.263 218.85 226.505 217.986 223.934 218.761C223.667 216.013 223.597 213.145 222.561 210.692C222.533 210.626 222.441 210.597 222.399 210.67C221.319 212.51 221.227 214.558 221.144 216.68C221.065 218.672 221.141 220.709 221.402 222.688C221.236 222.815 221.068 222.936 220.893 223.053C220.073 223.593 219.19 224.009 218.262 224.318C216.495 224.902 214.642 225.156 212.79 225.245C208.007 225.474 203.078 224.991 198.375 224.171C193.618 223.342 186.325 222.097 182.092 219.717C179.298 218.148 176.721 216.232 174.109 214.377C175.056 211.328 175.298 208.049 174.344 205.473C174.23 205.165 173.747 205.107 173.655 205.473C173.057 207.932 172.883 210.403 172.088 212.833C172.075 212.868 172.063 212.907 172.05 212.941C171.802 212.773 171.554 212.608 171.306 212.443C170.734 212.065 169.956 212.348 169.613 212.887C164.124 221.531 155.433 222.027 146.307 223.571C136.318 225.261 126.28 227.084 116.677 230.391C107.493 233.556 98.7156 238.162 91.7625 245.043C90.1885 246.601 88.7166 248.261 87.3272 249.994C88.6714 250.163 90.0045 250.427 91.3205 250.84C92.8785 251.329 92.209 253.782 90.6445 253.291C88.9533 252.759 87.2433 252.497 85.5159 252.366C80.7914 258.827 77.1077 266.153 73.9222 273.364C67.8122 287.189 63.8352 301.913 62.0051 316.903C63.0099 316.301 64.0329 315.728 65.0812 315.195C66.5379 314.454 67.8227 316.647 66.3644 317.389C64.745 318.212 63.172 319.12 61.6479 320.104C60.9822 326.666 60.7241 333.27 60.8805 339.863C61.2523 355.582 63.3751 371.761 68.1767 386.759C70.5315 394.119 73.6521 401.42 78.3013 407.64C80.405 410.457 82.7947 412.999 85.6102 415.118C86.9735 416.147 88.4163 417.066 89.9384 417.84C91.8991 418.844 94.4541 419.175 96.1447 420.595C96.7008 421.062 97.1298 421.678 97.454 422.374C97.2665 423.695 97.2442 425.02 97.6065 426.341C97.7209 426.755 98.0323 427.091 98.4168 427.253C98.4232 427.367 98.4232 427.479 98.4232 427.587C98.4232 427.638 98.4995 427.65 98.509 427.6C98.5249 427.501 98.5408 427.402 98.5567 427.301C98.6806 427.342 98.8109 427.361 98.9444 427.361C103.771 427.38 108.605 427.262 113.438 427.098C113.064 425.953 112.66 424.819 112.271 423.674C111.743 422.119 114.199 421.458 114.722 422.999C115.177 424.337 115.652 425.663 116.075 427.006C121.254 426.813 126.432 426.582 131.6 426.412C142.592 426.046 153.581 425.925 164.576 425.694C181.65 425.332 198.849 424.591 215.95 425.316C216.542 424.061 217.204 422.835 217.831 421.597C218.572 420.136 220.764 421.424 220.027 422.88C219.59 423.74 219.138 424.589 218.709 425.447C222.172 425.627 225.632 425.865 229.085 426.189C234.977 426.742 240.812 427.723 246.697 428.334C252.68 428.956 258.534 428.845 264.471 427.857C265.538 427.679 266.167 427.034 266.428 426.233C266.437 426.23 266.444 426.224 266.45 426.214C266.755 425.859 267.041 425.563 267.337 425.306C267.69 425.077 268.071 424.883 268.519 424.712C269.355 424.394 270.226 424.2 271.109 424.07C272.081 423.924 273.066 423.911 274.039 423.791C274.858 423.686 275.66 423.53 276.46 423.34C277.9 422.997 279.266 422.549 280.627 421.954C281.812 421.437 282.882 420.693 283.893 419.883C285.984 418.355 287.795 416.405 289.378 414.378C290.3 413.193 291.167 411.963 291.955 410.683C293.328 408.466 294.498 406.162 295.68 403.84C296.109 403.152 296.5 402.448 296.858 401.728C294.548 401.048 292.215 400.493 289.766 400.453C288.129 400.427 288.129 397.886 289.766 397.912C292.575 397.957 295.232 398.613 297.872 399.394C298.001 399.053 298.124 398.709 298.238 398.36C298.553 397.633 298.813 396.886 299.029 396.13C299.156 395.787 299.283 395.444 299.411 395.101C299.697 393.913 299.983 392.722 300.272 391.53C300.847 389.624 301.301 387.69 301.635 385.729C301.915 384.44 302.131 383.14 302.277 381.825C302.722 378.639 303.084 375.459 303.11 372.238C303.071 370.252 302.944 368.27 302.728 366.297C302.636 364.956 302.48 363.622 302.271 362.298C301.997 360.328 301.727 358.378 301.273 356.433C300.933 355.118 300.593 353.803 300.253 352.488C299.404 349.746 298.403 347.059 297.249 344.431C297.186 344.266 296.865 343.904 296.671 343.901C296.525 343.898 296.321 344.031 296.388 344.209C296.395 344.225 296.401 344.244 296.408 344.26C296.341 344.11 296.277 343.958 296.211 343.809C296.153 343.669 295.931 343.39 295.759 343.393C295.75 343.393 295.74 343.393 295.728 343.396C295.772 343.364 295.813 343.323 295.855 343.275C296.995 341.925 297.736 340.149 298.553 338.586C299.229 337.296 299.868 335.937 300.053 334.478C300.214 333.199 299.995 331.937 299.191 330.901C298.276 329.723 296.554 329.17 297.51 327.467C298.597 325.53 300.196 323.849 298.603 321.647C297.793 320.526 296.509 319.91 295.556 318.935C294.46 317.807 293.938 316.298 293.967 314.757C294.034 314.795 294.123 314.776 294.154 314.681C295.076 311.898 294.409 308.842 293.465 306.132C292.95 304.662 291.86 304.258 290.592 304.185C296.083 293.463 301.222 282.57 305.801 271.426C305.954 271.06 306.103 270.695 306.252 270.33C306.475 269.783 306.005 269.056 305.461 268.935C301.502 268.068 297.377 267.792 293.344 267.411Z" fill="black"/>
<path fill-rule="evenodd" clip-rule="evenodd" d="M243.434 112.211C242.21 104.79 246.228 103.25 243.434 96.1963C237.224 83.1259 220.302 83.689 207.884 82.6841C194.033 82.1523 180.014 83.9841 167.245 89.5454C164.195 90.8736 161.262 92.4357 158.45 94.2104C156.018 95.7453 156.352 98.6635 157.885 100.255C146.829 115.94 153.153 136.993 144.331 153.502C142.702 156.454 140.546 159.1 139.13 162.17C136.976 166.838 136.838 173.526 141.721 176.626C148.599 180.324 152.436 173.002 155.815 183.615C172.691 220.622 206.622 222.706 238.833 203.412C241.62 201.859 244.464 200.104 246.568 197.665C251.345 192.279 250.782 184.707 250.888 177.982C250.947 174.041 250.957 170.099 250.918 166.158C250.768 150.192 245.486 128.045 243.434 112.211Z" fill="#D08B5B"/>
<path fill-rule="evenodd" clip-rule="evenodd" d="M174.828 67.8264C194.276 58.9886 216.335 55.6371 237.55 57.8355C248.021 58.9188 258.354 61.243 268.188 65.0185L269.05 65.3523C271.478 66.2882 274.094 67.2173 275.939 69.1226C278.086 71.3368 278.688 74.6851 277.154 77.4203C275.961 79.5456 273.818 81.0701 271.531 81.8837C272.337 82.5444 273.101 83.2814 273.818 84.1042C275.026 85.483 275.118 87.4491 273.818 88.809C271.312 91.4299 268.062 93.3261 264.561 94.235C264.954 96.1379 264.742 98.2441 263.898 100.141C261.478 105.585 254.659 106.233 249.413 105.91L249.254 105.9L248.962 109.245C248.807 111.027 247.741 112.409 245.934 112.683C245.871 112.692 245.807 112.698 245.744 112.704C248.604 123.067 250.332 133.751 251.927 144.371C252.761 149.915 253.507 155.471 254.221 161.032L254.458 162.885C255.219 168.88 256.17 174.935 256.5 180.974C256.795 186.454 255.752 191.686 252.381 196.108C249.356 200.073 245.23 203.043 240.794 205.247C230.77 210.232 220.219 213.942 209.133 215.664L208.394 215.778C204.114 216.432 199.705 216.984 195.472 215.798C191.753 214.756 187.852 212.068 188.692 207.751C188.974 206.293 191.01 206.229 191.708 207.357L191.869 207.615C192.705 208.945 193.622 210.181 195.082 210.867C196.791 211.674 198.773 211.899 200.641 211.922C205.857 211.982 211.29 210.68 216.313 209.374C225.693 206.935 235.327 202.957 243.01 196.931C246.28 194.37 248.905 191.168 249.831 187.048C250.976 181.968 249.923 176.415 249.403 171.31C248.333 160.776 247.059 150.262 245.715 139.759L245.446 137.658C244.314 128.878 243.125 120.094 242.56 111.263C242.325 110.942 242.167 110.576 242.103 110.176L242.015 109.601V109.601C241.938 109.109 241.926 108.658 241.98 108.241C241.983 106.647 242.027 105.061 242.119 103.466C242.135 103.181 242.148 102.895 242.157 102.612C240.502 102.977 238.834 103.273 237.159 103.524C225.388 105.3 213.433 105.744 201.567 104.861C195.646 104.419 189.771 103.66 183.913 102.711C180.932 102.228 177.961 101.694 174.999 101.097C172.859 100.668 170.763 100.087 168.657 99.5402C166.485 102.707 165.312 106.605 165.54 110.433C165.797 114.801 168.701 118.763 167.886 123.226C167.122 127.403 163.549 128.699 160.022 129.733L158.522 130.167C157.368 130.505 156.53 130.83 156.321 132.22C155.963 134.605 156.404 137.29 156.496 139.688C156.607 142.525 156.752 145.362 156.819 148.199C156.854 149.667 156.911 151.141 156.908 152.608C156.905 153.65 156.75 154.362 156.347 155.035C156.658 155.426 156.936 155.849 157.184 156.297C157.263 156.443 157.067 156.598 156.95 156.478C156.635 156.15 156.302 155.855 155.95 155.591C155.773 155.81 155.567 156.033 155.325 156.271L155.307 156.246V156.246C154.552 156.999 153.353 157.072 152.417 156.271L152.172 156.058C151.487 155.456 151.016 154.956 150.826 153.962C150.816 153.911 150.807 153.86 150.801 153.809C149.06 153.749 147.29 154.161 145.724 155.029C143.241 156.405 141.493 158.365 140.46 160.785C140.872 161.268 141.354 161.7 141.915 162.062C141.994 162.116 141.925 162.234 141.839 162.193C141.265 161.923 140.751 161.589 140.291 161.198C139.92 162.151 139.66 163.174 139.502 164.258C138.944 168.082 139.939 172.755 143.39 174.935C144.883 175.878 146.589 176.39 148.359 176.396C149.221 176.399 149.967 176.253 150.804 176.047C151.371 175.907 151.936 175.703 152.529 175.703C153.036 175.703 153.505 175.831 153.94 176.085L153.819 176.095C153.527 176.123 153.583 176.135 153.991 176.135C155.259 176.189 155.985 177.479 155.402 178.601L155.325 178.774C155.309 178.809 155.296 178.838 155.285 178.861L155.239 179.158C155.234 179.187 155.229 179.216 155.224 179.246L155.207 179.306C155.203 179.315 155.2 179.325 155.196 179.335L157.098 182.241C159.43 185.796 161.815 189.337 164.528 192.585C166.431 194.863 168.448 197.096 170.579 199.164C172.494 201.022 174.79 201.918 176.959 203.38C178.117 204.155 178.456 205.778 177.403 206.823C174.314 209.895 169.941 207.455 167.408 204.958C165.01 202.592 162.94 199.745 161.154 196.896C157.986 191.829 155.465 186.441 154.362 180.593C153.902 181.015 153.315 181.279 152.722 181.485C151.533 181.898 150.223 182.07 148.968 182.114C146.561 182.194 144.151 181.609 141.985 180.573C133.172 176.364 131.878 163.759 137.266 156.325C136.54 154.215 136.134 151.925 135.693 149.972L135.493 149.099C133.264 139.348 131.769 129.083 135.719 119.528C136.226 118.296 136.797 117.095 137.472 115.945C138.015 115.021 138.947 114.036 139.204 112.984C139.775 110.675 136.251 108.248 135.224 106.415C134.016 104.264 133.845 101.726 135.49 99.7591C135.7 99.5116 135.928 99.2826 136.175 99.0827C134.615 96.2491 134.542 92.6847 136.597 89.8891C137.948 88.0466 140.009 86.7568 142.261 86.3661C143.637 86.1278 145.292 86.2168 146.805 86.6425C155.088 78.9388 164.538 72.5026 174.828 67.8264ZM143.022 164.219C145.232 162.266 147.674 161.243 150.687 161.5C153.715 161.76 157.362 163.015 159.14 165.617C160.546 167.673 157.682 170.687 155.621 169.143C153.743 167.736 152.491 166.148 150.16 165.392C148.067 164.715 145.476 164.28 143.285 164.667C143.044 164.709 142.803 164.41 143.022 164.219Z" fill="black"/>
<path fill-rule="evenodd" clip-rule="evenodd" d="M229.494 183.875C229.715 183.815 229.909 184.111 229.726 184.273C228.978 184.937 228.503 186.173 227.957 187.016C227.438 187.818 226.937 188.612 226.481 189.451C225.969 190.392 225.474 191.329 225.076 192.324L224.997 192.525V192.525C225.116 192.809 225.21 193.089 225.278 193.273L225.298 193.325C225.979 195.062 224.55 196.994 222.939 197.479C220.182 198.31 217.817 196.047 217.752 193.356C217.7 191.239 219.135 189.353 220.594 187.953C221.87 186.729 223.298 185.687 224.897 184.924C225.602 184.588 226.334 184.306 227.1 184.143C227.883 183.976 228.727 184.082 229.494 183.875ZM224.299 191.547C224.501 191.642 224.674 191.875 224.819 192.147C224.747 191.916 224.597 191.687 224.299 191.547ZM226.024 162.132C228.423 163.59 232.08 166.99 229.498 170.605C226.46 173.793 222.085 170.138 219.929 168.485C217.93 167.204 215.683 170.499 217.538 171.995C233.117 183.525 239.439 162.513 227.237 160.418C225.894 160.187 225.395 161.681 226.024 162.132ZM206.298 148.131L206.722 148.095C208.561 147.933 210.423 147.686 212.237 148.102C214.673 148.661 214.495 152.204 212.237 152.856C210.247 153.43 208.042 153.182 205.988 153.201C205.664 153.204 205.342 153.213 205.019 153.218C204.955 153.986 204.703 154.648 204.318 155.309C204.041 155.784 203.688 156.235 203.341 156.656C202.516 157.658 200.571 157.636 199.738 156.656C199.122 155.931 198.632 155.098 198.624 154.116C198.622 153.865 198.652 153.598 198.713 153.336L197.591 153.355C194.847 153.397 192.082 153.379 189.388 152.943C188.429 153.141 187.645 151.412 188.968 150.895C192.564 149.489 196.582 149.075 200.398 148.652C202.359 148.435 204.331 148.286 206.298 148.131ZM236.936 146.678L237.034 146.668C239.414 146.424 242.037 146.002 244.421 146.245C247.982 146.607 247.976 151.418 244.421 151.778C243.117 151.91 241.742 151.846 240.371 151.72C241.072 153.206 240.24 154.981 238.552 155.208C236.983 155.418 235.357 153.894 235.872 152.259L235.896 152.187C235.996 151.903 236.086 151.586 236.193 151.274L235.626 151.226C233.928 151.076 231.573 150.769 230.948 149.43C230.76 149.026 230.803 148.651 231.093 148.306C232.283 146.89 235.216 146.844 236.936 146.678V146.678ZM211.629 135.661C213.351 135.036 215.141 136.499 215.365 138.149C215.622 140.05 214.251 141.302 212.512 141.529L212.425 141.539C208.587 141.962 204.779 142.735 200.936 143.171C199.191 143.369 197.432 143.5 195.676 143.547L194.42 143.575C192.881 143.614 191.231 143.649 189.811 143.119L189.816 143.11V143.11C189.439 143 189.265 142.457 189.685 142.159C191.198 141.09 193.236 140.686 194.997 140.178C196.767 139.667 198.55 139.196 200.338 138.753C204.092 137.825 207.992 136.982 211.629 135.661ZM227.514 136.106C227.97 133.7 231.378 133.442 232.63 135.193C233.439 135.47 234.625 135.76 235.36 135.978C236.641 136.357 237.923 136.735 239.207 137.1C241.867 137.858 244.463 138.818 247.078 139.713C247.347 139.805 247.273 140.147 247.014 140.181C243.364 140.656 239.776 140.877 236.104 140.725L235.351 140.691C232.115 140.565 226.622 140.805 227.514 136.106Z" fill="black"/>
<path fill-rule="evenodd" clip-rule="evenodd" d="M226.373 174.509C222.839 172.918 216.493 174.307 214.189 174.859C208.833 176.143 203.445 178.918 201.78 183.265C199.903 188.165 203.647 189.707 204.198 189.455C207.906 189.716 212.321 187.386 216.207 186.785C219.361 186.292 222.689 185.862 225.644 184.187C227.802 185.373 232.675 186.015 236.608 187.052C239.958 187.936 241.409 189.851 244.515 189.444C248.237 188.956 246.713 181.13 242.565 177.96C238.025 174.491 230.347 173.084 226.373 174.509ZM233.371 207.969C230.279 208.722 230.071 201.948 229.725 199.554C229.454 197.685 227.928 192.863 224.059 193.071C220.19 193.279 218.735 197.319 218.931 199.831C219.059 201.461 220.561 209.715 215.766 210.759C212.71 210.748 209.173 210.542 205.959 209.949C202.176 209.093 197.257 206.094 195.958 212C195.49 214.125 212.154 220.439 219.549 221.011C227.048 222.53 235.822 220.194 241.161 214.459C242.376 213.154 245.797 207.739 246.04 206.412C246.552 203.624 245.367 201.831 241.916 202.813C239.479 204.114 235.359 207.484 233.371 207.969Z" fill="black"/>
</svg>
