<svg width="648" height="838" viewBox="0 0 648 838" fill="none" xmlns="http://www.w3.org/2000/svg">
<path fill-rule="evenodd" clip-rule="evenodd" d="M232.178 388.251C242.743 380.882 247.982 368.816 251.924 366.762C254.825 365.251 254.772 354.825 260.585 351.135C268.387 346.183 293.247 342.5 302.292 341.812C310.973 341.151 326.073 342.539 334.218 345.586C347.801 350.666 353.219 360.356 359.201 372.841C359.201 372.841 224.919 393.314 232.178 388.251Z" fill="#EDB98A"/>
<path fill-rule="evenodd" clip-rule="evenodd" d="M429.218 396.861H214.531L140.222 460.212L107.239 726.485L154.152 740.484L444.015 745.127L534.542 720.599L540.19 535.251L429.218 396.861Z" fill="#78E185"/>
<path fill-rule="evenodd" clip-rule="evenodd" d="M137.426 678.113C138.922 677.397 140.481 676.579 142.188 676.522C145.122 676.424 145.126 672.051 142.188 672.149C139.627 672.235 137.377 673.258 135.123 674.337C132.492 675.595 134.806 679.366 137.426 678.113ZM142.188 555.019C140.187 555.021 138.169 555.263 136.632 556.605C135.718 557.403 135.791 558.89 136.632 559.697C137.533 560.559 138.948 560.492 139.859 559.697C139.562 559.956 139.857 559.699 139.964 559.642C139.99 559.629 140.004 559.619 140.011 559.613C140.034 559.608 140.057 559.604 140.094 559.594C140.332 559.537 140.568 559.481 140.809 559.439C140.813 559.45 141.319 559.407 141.437 559.402C141.688 559.394 141.938 559.393 142.188 559.393C143.426 559.392 144.47 558.393 144.47 557.206C144.47 556.025 143.422 555.019 142.188 555.019ZM163.645 604.073C164.299 606.82 168.697 605.65 168.045 602.91C167.097 598.927 167.27 594.845 168.045 590.848C168.579 588.093 164.181 586.922 163.645 589.686C162.715 594.481 162.507 599.293 163.645 604.073ZM169.408 446.908C172.807 446.135 176.169 446.043 179.645 446.042C182.586 446.041 182.581 441.667 179.645 441.669C175.768 441.67 171.983 441.829 168.195 442.691C165.335 443.342 166.554 447.558 169.408 446.908ZM180.796 553.426C182.767 552.482 184.739 551.537 186.71 550.593C189.341 549.333 187.027 545.562 184.407 546.817L178.493 549.651C175.863 550.911 178.177 554.682 180.796 553.426ZM181.617 639.545C184.117 642.999 187.633 645.145 191.852 646.217C194.698 646.94 195.902 642.721 193.065 642C190.048 641.234 187.368 639.838 185.558 637.337C183.894 635.038 179.94 637.227 181.617 639.545ZM197.385 485.576C198.062 484.364 199.08 483.853 200.344 483.825C203.281 483.761 203.281 479.388 200.344 479.452C197.464 479.515 194.822 480.901 193.445 483.369C192.06 485.852 196.001 488.059 197.385 485.576ZM226.33 515.301C227.148 516.155 228.734 516.134 229.557 515.301C230.06 514.792 230.484 514.223 230.817 513.599C230.943 513.362 231.063 513.121 231.202 512.891C231.264 512.789 231.333 512.687 231.404 512.589C231.428 512.568 231.477 512.519 231.529 512.467C232.405 511.579 232.383 510.268 231.529 509.375C230.71 508.521 229.124 508.542 228.301 509.375C227.798 509.884 227.374 510.453 227.042 511.077C226.915 511.314 226.796 511.555 226.656 511.786C226.594 511.888 226.525 511.989 226.454 512.087C226.43 512.108 226.381 512.157 226.33 512.209C225.452 513.097 225.475 514.408 226.33 515.301ZM228.763 579.875C231.735 581.178 234.994 581.178 237.966 579.875C239.092 579.382 239.359 577.824 238.784 576.883C238.119 575.793 236.783 575.608 235.663 576.099C234.315 576.69 232.412 576.689 231.066 576.099C229.941 575.606 228.618 575.781 227.945 576.883C227.367 577.83 227.642 579.384 228.763 579.875ZM236.869 625.582C237.38 626.741 238.483 627.356 239.772 627.403C241.049 627.45 242 626.364 242.053 625.217C242.088 624.476 241.67 623.842 241.069 623.449C241.068 623.409 241.067 623.369 241.067 623.328C241.067 622.102 240.022 621.194 238.786 621.141C237.554 621.088 236.503 622.184 236.504 623.328C236.504 624.099 236.554 624.865 236.869 625.582ZM248.643 698.248C252.285 698.304 255.843 699.136 259.485 699.193C262.428 699.238 262.419 694.865 259.485 694.819C255.843 694.763 252.285 693.931 248.643 693.875C245.7 693.829 245.709 698.202 248.643 698.248ZM263.787 418.008C265.918 419.954 268.551 420.913 271.148 422.128C273.779 423.36 276.089 419.588 273.451 418.352C271.252 417.322 268.817 416.561 267.013 414.916C264.885 412.974 261.655 416.063 263.787 418.008ZM269.508 468.413C271.004 467.698 272.563 466.88 274.27 466.823C277.204 466.724 277.208 462.351 274.27 462.45C271.709 462.535 269.459 463.559 267.205 464.637C264.574 465.896 266.888 469.666 269.508 468.413ZM296.941 670.716C297.616 669.504 298.634 668.993 299.898 668.966C302.835 668.902 302.837 664.528 299.898 664.592C297.018 664.655 294.376 666.042 293 668.509C291.615 670.993 295.555 673.199 296.941 670.716ZM306.44 575.755C307.349 574.956 307.285 573.472 306.44 572.663C305.455 571.718 304.469 570.774 303.483 569.829C302.582 568.965 301.167 569.028 300.257 569.829C299.348 570.628 299.412 572.111 300.257 572.921C301.243 573.866 302.228 574.81 303.214 575.755C304.116 576.619 305.53 576.556 306.44 575.755ZM317.641 723.752C320.933 723.678 324.019 722.773 327.119 721.785C329.896 720.899 328.698 716.677 325.906 717.568C323.211 718.427 320.505 719.315 317.641 719.379C314.704 719.444 314.703 723.817 317.641 723.752ZM332.427 630.237C335.401 630.158 337.868 628.707 339.954 626.763C342.064 624.797 338.834 621.707 336.727 623.671C335.533 624.783 334.156 625.818 332.427 625.864C329.491 625.942 329.488 630.315 332.427 630.237ZM323.245 509.976C323.209 511.141 322.696 512.388 321.942 513.153C319.925 515.2 323.148 518.296 325.169 516.246C326.835 514.554 327.738 512.291 327.809 509.976C327.893 507.157 323.329 507.169 323.245 509.976ZM358.053 414.732C359.008 412.94 360.259 410.839 362.163 409.849C364.748 408.504 362.442 404.73 359.859 406.072C357.272 407.418 355.42 410.071 354.112 412.524C352.778 415.029 356.717 417.239 358.053 414.732ZM363.968 460.211C365.027 460.182 366.078 460.008 367.099 459.743C367.535 459.629 367.966 459.498 368.403 459.385C368.59 459.336 369.385 459.241 368.897 459.266C370.132 459.203 371.178 458.316 371.178 457.079C371.178 455.943 370.129 454.829 368.897 454.893C367.203 454.98 365.663 455.792 363.968 455.837C361.033 455.917 361.031 460.29 363.968 460.211ZM378.754 530.11H383.682C386.623 530.11 386.618 525.737 383.682 525.737H378.754C375.812 525.737 375.818 530.11 378.754 530.11ZM384.502 723.453C385.997 724.17 387.758 724.849 388.969 725.945C391.103 727.879 394.334 724.791 392.196 722.853C390.654 721.456 388.682 720.577 386.805 719.677C385.699 719.147 384.339 719.387 383.683 720.462C383.09 721.434 383.4 722.925 384.502 723.453ZM395.514 668.199C395.705 668.148 395.907 668.112 396.101 668.087C396.876 667.987 397.688 668.021 398.467 668.021C401.408 668.019 401.404 663.646 398.467 663.648C396.153 663.649 393.745 663.68 391.925 665.233C391.002 666.021 391.091 667.526 391.925 668.325C392.832 669.194 394.233 669.11 395.152 668.325C395.055 668.409 395.388 668.232 395.514 668.199ZM398.466 593.886C397.803 592.576 397.793 591.722 397.792 590.267C397.79 587.448 393.226 587.453 393.229 590.267C393.23 592.38 393.558 594.18 394.526 596.093C395.066 597.16 396.647 597.439 397.647 596.878C398.768 596.25 399.003 594.948 398.466 593.886ZM411.661 491.304C414.307 492.167 416.67 493.388 419.001 494.862C421.461 496.418 423.744 492.629 421.304 491.086C418.644 489.404 415.893 488.071 412.874 487.087C410.082 486.177 408.895 490.403 411.661 491.304ZM427.052 417.704C429.019 417.756 431.048 418.479 432.8 419.295C435.434 420.52 437.745 416.748 435.103 415.518C432.6 414.353 429.862 413.406 427.052 413.331C424.11 413.251 424.122 417.625 427.052 417.704ZM433.952 614.179C434.726 614.212 435.387 613.812 435.796 613.236C435.839 613.236 435.881 613.234 435.924 613.234C437.202 613.234 438.149 612.233 438.205 611.048C438.261 609.868 437.117 608.861 435.924 608.861C435.118 608.862 434.319 608.909 433.571 609.212C432.362 609.7 431.72 610.757 431.67 611.992C431.622 613.217 432.755 614.128 433.952 614.179ZM445.174 462.966C447.977 463.844 449.166 459.62 446.387 458.749C443.125 457.728 439.792 456.937 436.53 455.915C433.727 455.038 432.538 459.262 435.317 460.132C438.578 461.154 441.912 461.945 445.174 462.966ZM455.408 545.508C456.277 548.192 460.68 547.04 459.809 544.345C458.967 541.744 458.906 539.127 458.905 536.425C458.903 533.606 454.34 533.611 454.341 536.425C454.343 539.5 454.451 542.548 455.408 545.508ZM485.918 644.371C486.084 645.46 486.985 646.244 488.165 646.295C489.366 646.347 490.49 645.253 490.447 644.109C490.363 641.907 488.49 640.113 486.194 640.033C484.916 639.988 483.966 641.07 483.912 642.22C483.86 643.336 484.833 644.208 485.918 644.371ZM501.358 518.697C503.77 519.469 506.346 520.203 508.237 521.913C510.373 523.845 513.604 520.757 511.463 518.821C508.971 516.566 505.764 515.502 502.571 514.48C499.775 513.586 498.587 517.811 501.358 518.697ZM511.823 603.65C512.486 604.736 513.828 604.932 514.944 604.435C516.441 603.768 518.093 603.79 519.707 603.788C522.648 603.786 522.643 599.413 519.707 599.415C517.218 599.418 514.921 599.642 512.641 600.658C511.519 601.159 511.246 602.704 511.823 603.65ZM517.736 706.749C519.014 706.794 519.964 705.711 520.018 704.563C520.07 703.446 519.097 702.574 518.011 702.411C517.845 701.322 516.944 700.537 515.764 700.487C514.563 700.435 513.439 701.529 513.483 702.674C513.567 704.875 515.438 706.668 517.736 706.749ZM101.997 723.284C102.772 720.611 104.546 718.452 105.887 716.047C106.336 715.236 106.493 714.732 106.736 714.138C107.067 714.773 107.709 715.25 108.675 715.251C110.528 715.251 112.695 715.137 114.424 715.897C115.548 716.39 116.873 716.215 117.545 715.112C118.123 714.165 117.847 712.613 116.727 712.121C114.178 711.002 111.439 710.879 108.675 710.877C107.992 710.877 107.475 711.118 107.11 711.48C106.054 697.617 106.08 683.745 107.08 669.872C108.146 655.047 110.599 640.517 113.166 625.884C114.409 618.788 116.023 611.622 115.709 604.395C115.396 597.218 112.184 590.527 114.46 583.328C115.373 580.441 116.936 577.796 117.951 574.942C119.041 571.87 118.944 568.836 118.447 565.655C117.426 559.177 115.733 552.776 118.442 546.451C119.64 543.647 121.58 541.143 122.515 538.246C123.678 534.644 123.519 530.659 123.712 526.925C124.106 519.393 124.209 511.811 124.86 504.294C125.15 500.927 125.783 497.735 127.226 494.646C128.613 491.673 130.672 488.967 131.59 485.813C132.503 482.708 132.583 479.433 133.073 476.257C133.586 472.901 134.391 469.594 135.475 466.369C139.662 453.883 147.334 442.666 156.398 432.941C166.032 422.604 177.549 414.82 189.773 407.566C196.201 403.752 202.629 399.937 209.052 396.123C209.189 396.839 209.665 397.496 210.58 397.789C212.992 398.561 215.568 399.295 217.459 401.005C219.594 402.937 222.826 399.849 220.685 397.913C218.453 395.893 215.647 394.83 212.791 393.895C215.718 392.128 218.676 390.297 221.979 389.276C224.872 388.379 229.138 389.161 231.483 387.128C233.325 385.526 233.907 382.558 234.614 380.382C235.498 377.682 236.263 374.834 237.386 372.21C238.151 370.417 239.263 368.695 240.666 367.306C241.282 365.032 242.412 362.955 244.409 361.692C249.633 358.38 256.051 361.67 258.349 366.393C260.249 366.388 262.251 366.787 264.099 366.896C267.898 367.126 271.703 367.23 275.508 367.219C282.952 367.197 290.401 366.732 297.783 365.787C310.982 364.092 323.788 360.676 336.765 358.013C336.839 357.849 336.925 357.685 337.028 357.521C339.823 353.028 346.788 353.788 351.175 355.488C353.057 356.215 354.973 357.133 356.051 358.839C357.192 359.577 358.179 360.473 358.835 361.419C360.193 363.371 361.242 367.306 363.997 367.634C365.811 367.847 367.654 367.514 369.496 367.765C371.801 368.072 373.866 368.848 375.993 369.733C392.193 376.473 408.941 383.968 426.522 386.581C430.645 387.193 434.844 387.827 438.426 390.041C441.335 391.84 443.583 394.31 445.984 396.655C448.323 398.94 450.251 399.952 453.588 400.362C457.638 400.859 461.146 401.931 464.106 404.751C466.565 407.096 468.168 410.092 470.096 412.814C472.059 415.591 474.939 417.154 477.928 418.767C484.995 422.583 491.578 427.191 497.311 432.717C509.387 444.372 516.699 459.35 524.069 473.945C532.038 489.732 539.488 505.71 544.656 522.569C549.721 539.121 552.733 556.149 554.125 573.335C555.591 591.369 555.796 609.474 557.017 627.518C557.627 636.532 558.089 645.557 558.557 654.577C559.013 663.487 559.681 672.414 559.573 681.335C559.367 698.581 555.768 715.883 549.476 732.03C547.907 736.048 546.168 740.011 544.314 743.914C542.688 747.342 537.126 746.959 535.381 743.914C534.981 743.215 534.668 742.493 534.405 741.761C529.842 741.799 525.233 741.46 520.698 741.864C512.689 742.581 504.664 742.98 496.632 743.455C480.74 744.401 464.819 745.03 448.922 745.899C447.379 745.983 445.837 746.068 444.295 746.156C455.624 712.552 454.155 676.223 455.948 641.275C456.092 638.458 451.527 638.474 451.384 641.275C449.584 676.372 451.117 712.795 439.387 746.453C434.836 746.748 430.292 747.109 425.763 747.637C422.101 748.058 418.421 748.555 414.725 748.38C410.532 748.189 406.437 747.271 402.347 746.473C394.914 745.024 387.755 745.68 380.294 746.571C372.314 747.528 364.305 748.058 356.274 748.391C324.113 749.742 291.736 750.971 259.587 748.911C251.807 748.413 244.043 747.713 236.314 746.762C228.351 745.784 220.473 744.138 212.516 743.204C204.673 742.285 197.462 744.805 189.71 745.27C181.805 745.746 173.687 744.166 165.855 743.258C163.3 742.962 160.743 742.673 158.184 742.386C161.478 720.753 163.351 698.957 165.17 677.17C165.404 674.359 160.839 674.383 160.606 677.17C158.802 698.787 156.971 720.421 153.682 741.884C140.121 740.372 126.546 738.842 113.125 736.485C109.304 735.819 105.505 734.731 103.217 731.462C101.524 729.04 101.181 726.072 101.997 723.284Z" fill="black"/>
<path fill-rule="evenodd" clip-rule="evenodd" d="M204.968 264.576C206.193 254.236 204.607 232.624 204.501 231.311C203.829 223.01 207.879 190.232 215.535 193.252C228.378 183.489 245.484 181.333 261.479 180.303C294.703 178.163 330.047 183.075 355.702 204.547C368.389 215.698 380.741 231.916 379.748 248.803C391.275 264.809 407.526 286.766 393.163 305.48C388.281 311.458 380.522 313.685 374.389 318.212C362.053 327.768 354.314 341.481 341.861 350.979C308.869 379.45 252.848 385.397 220.433 353.014C195.368 329.561 199.421 294.475 203.829 264.576C206.794 244.474 202.577 284.747 204.968 264.576Z" fill="#EDB98A"/>
<path fill-rule="evenodd" clip-rule="evenodd" d="M305.861 136.455C296.976 134.733 287.852 133.662 278.778 133.984L278.078 134.011C271.251 134.273 262.605 134.852 256.649 138.665C256.306 138.335 255.755 138.165 255.256 138.394C248.178 141.638 240.393 143.984 232.941 146.315C225.523 148.634 217.827 150.166 210.052 150.783C207.127 151.015 204.624 154.048 206.476 156.769C206.916 157.417 207.346 158.072 207.773 158.729C207.058 158.657 206.343 158.583 205.628 158.514C203.276 158.286 200.925 160.698 201.065 162.897C201.152 164.281 201.307 165.648 201.537 166.999C200.641 166.981 199.75 167.11 198.89 167.459C194.532 169.226 194.835 174.211 195.161 178.004C195.613 183.267 197.663 188.841 201.469 192.781C198.627 195.615 196.616 199 195.416 203.02C194.546 205.955 194.061 209.082 194.3 212.138L194.376 213.053C194.672 216.369 195.26 220.04 197.744 222.425C199.019 223.655 200.59 224.104 202.088 223.961C201.182 231.604 200.601 239.289 200.055 246.948L199.799 250.608C198.58 268.308 197.664 286.124 197.903 303.853C198.126 320.422 201.535 336.504 212.117 349.957C221.754 362.207 235.591 371.237 251.245 374.67C259.681 376.523 268.293 376.655 276.831 375.474C280.97 374.9 285.136 374.02 289.064 372.631C293.413 371.09 296.538 368.821 299.463 365.421C300.847 363.809 300.181 360.376 297.426 360.698C293.258 361.183 289.454 361.768 285.458 362.952L284.886 363.125C280.907 364.35 276.786 365.263 272.625 365.651C264.104 366.443 255.452 365.645 247.289 363.163C233.998 359.118 222.551 350.104 215.213 338.778C206.504 325.352 205.519 310.112 205.645 294.675C205.78 277.735 206.354 260.786 207.29 243.864L207.45 241.044C207.945 232.336 208.423 223.623 208.844 214.909C208.975 212.176 209.174 209.421 209.533 206.693C212.817 204.845 215.76 202.298 217.678 199.155C221.532 200.686 225.584 201.79 229.313 202.67C237.951 204.71 246.918 205.205 255.71 203.928C258.081 204.868 260.5 205.695 262.955 206.407C263.619 206.69 264.283 206.968 264.946 207.24C270.866 209.672 276.872 211.733 283.121 213.242L284.656 213.61C287.945 214.388 291.518 215.155 295.018 215.396C295.593 215.609 296.213 215.789 296.891 215.948C300.078 216.691 303.386 216.926 306.653 216.664C309.835 216.407 312.135 213.318 310.382 210.427C309.101 208.317 307.808 206.212 306.505 204.113C311.041 205.928 315.726 207.437 320.451 208.716C325.221 210.006 330.059 211.094 334.904 212.094C337.494 212.624 340.094 213.094 342.679 213.624C344.529 214.002 347.369 214.198 348.878 215.368C350.545 216.653 351.018 219.648 351.65 221.496C352.481 223.896 353.261 226.307 353.972 228.745C355.389 233.61 356.55 238.546 357.45 243.531C358.349 248.522 358.953 253.562 359.289 258.618C359.624 263.669 359.477 268.753 360.017 273.782C360.308 276.45 363.29 277.822 365.493 275.958C365.751 275.739 366.012 275.518 366.27 275.295L366.654 274.958C368.539 273.318 370.366 271.579 371.874 269.622C372.147 269.262 372.409 268.884 372.654 268.502C372.693 268.502 372.728 268.491 372.767 268.463L373.186 268.161C377.789 264.871 385.48 260.581 389.969 266.047C391.4 267.789 392.132 270.006 392.74 272.146L393.806 275.975C394.496 278.474 395.146 280.988 395.525 283.545C396.385 289.274 395.952 295.878 391.848 300.469C390.208 302.306 387.949 303.618 385.427 303.962C384.021 304.148 382.632 303.919 381.237 303.749C379.82 303.58 378.455 303.853 377.037 303.722C374.783 303.509 373.798 306.1 374.64 307.729C375.096 308.603 375.631 309.358 376.24 309.997C375.751 310.402 375.283 310.839 374.834 311.298C373.502 311.708 372.307 312.588 371.413 313.753C370.69 314.693 370.315 315.715 370.252 316.792C370.172 317.06 370.104 317.333 370.041 317.612L368.82 319.515C368.551 319.933 368.284 320.345 368.015 320.75C364.907 325.451 361.457 329.43 357.171 333.18C353.044 336.788 348.565 340.019 344.688 343.889L344.231 344.348C340.617 348.006 336.807 352.434 338.222 357.752C338.586 359.118 340.573 360.102 341.87 359.178C346.043 356.205 348.144 351.493 351.684 347.885C355.327 344.168 359.363 340.828 363.017 337.122C366.472 333.623 369.199 329.66 371.253 325.298C372.074 326.167 373.268 326.785 374.925 327.025C377.771 327.435 380.424 325.833 381.664 323.466C382.462 323.805 383.275 324.111 384.096 324.352C388.41 325.62 391.125 321.012 389.497 317.606C388.626 315.781 387.539 314.195 386.19 312.862C390.408 312.304 394.7 310.21 397.472 307.597C404.427 301.032 405.384 291.165 403.818 282.392C402.987 277.74 401.553 273.033 399.692 268.666C399.368 267.906 399.02 267.141 398.639 266.386C398.85 266.381 399.066 266.293 399.203 266.124C400.461 264.473 401.991 263.123 402.925 261.275C403.785 259.581 404.741 257.864 405.418 256.098C406.812 252.485 407.496 248.407 407.951 244.586C408.89 236.764 408.526 228.991 407.279 221.217C405.157 207.978 400.029 195.308 392.475 184.19C392.886 183.983 393.28 183.732 393.648 183.436L393.829 183.284L394.124 183.028C396.28 181.155 396.094 177.644 394.124 175.746L393.502 175.147C392.714 174.396 392.035 173.801 390.763 172.982C390.575 172.862 390.383 172.748 390.189 172.642C390.855 171.46 391.086 170.078 390.622 168.553C389.006 163.242 381.048 163.43 376.004 165.746C370.424 160.964 364.237 156.812 357.53 153.45C341.557 145.447 323.496 139.866 305.861 136.455ZM388.427 276.341C385.444 275.406 381.482 277.368 378.801 278.549C375.403 280.047 372.511 282.261 369.711 284.6C368.316 285.77 368.066 287.683 368.413 289.318C368.448 289.482 368.481 289.651 368.522 289.821C368.891 291.564 370.918 292.937 372.711 292.887C376.462 292.789 378.249 289.679 380.373 287.044C380.623 287.47 380.936 287.864 381.323 288.159L381.585 288.356C382.466 289 383.438 289.515 384.602 289.465C385.427 289.427 386.218 289.225 386.947 288.859C388.769 287.935 389.571 285.672 389.076 283.83C388.769 282.671 388.063 281.763 387.141 281.135L387.484 280.909C388.22 280.417 388.891 279.899 389.413 279.134L389.531 278.954H389.486C390.055 278.013 389.684 276.734 388.427 276.341Z" fill="black"/>
<path fill-rule="evenodd" clip-rule="evenodd" d="M247.54 331.351C251.742 332.518 256.252 332.622 260.535 331.417C264.42 330.325 268.41 327.92 271.269 324.739C273.809 321.912 275.454 318.477 275.389 314.811C275.382 314.392 275.226 314.043 274.985 313.771C274.727 313.479 274.365 313.279 273.978 313.192C273.58 313.102 273.159 313.134 272.801 313.29C272.476 313.431 272.198 313.671 272.024 314.022C271.585 314.575 271.147 315.12 270.708 315.65C267.175 319.831 263.753 322.955 258.44 324.076C255.558 324.684 252.679 324.414 250.037 323.486C247.209 322.493 244.653 320.747 242.65 318.512C241.745 317.502 240.676 317.09 239.631 317.083C238.447 317.075 237.277 317.602 236.395 318.445C235.528 319.274 234.948 320.399 234.895 321.577C234.849 322.611 235.201 323.69 236.137 324.654C239.22 327.827 243.216 330.151 247.54 331.351ZM247.669 278.988C243.362 281.497 236.799 287.347 241.432 293.568C246.887 299.052 254.74 292.764 258.61 289.92C262.198 287.716 266.23 293.385 262.901 295.958C234.937 315.799 223.588 279.644 245.491 276.037C247.902 275.64 248.798 278.211 247.669 278.988ZM287.964 267.947C289.348 267.099 290.977 266.807 292.782 267.594C294.192 268.209 296.666 270.258 298.387 272.952C299.565 274.795 300.4 276.956 300.227 279.208C300.186 279.731 300.388 280.117 300.706 280.402C300.957 280.627 301.32 280.793 301.746 280.844C302.108 280.888 302.513 280.849 302.842 280.75C303.469 280.563 303.8 280.173 303.925 279.855C305.131 276.788 304.611 273.364 303.26 270.276C301.437 266.107 298.126 262.616 295.957 261.49C292.245 259.563 287.865 259.475 284.148 261.438C280.984 263.109 279.005 265.806 277.037 268.556C276.619 269.14 276.203 269.72 275.774 270.29C274.914 271.432 274.829 272.565 275.162 273.537C275.531 274.613 276.472 275.521 277.648 275.996C278.735 276.436 279.997 276.497 281.114 276.046C282.057 275.665 282.923 274.921 283.471 273.66C284.393 271.536 285.93 269.193 287.964 267.947ZM217.65 272.672C218.598 273.146 219.34 273.289 220.392 272.987C220.973 272.819 221.548 272.498 221.998 272.067C222.444 271.639 222.766 271.108 222.891 270.518C223.199 269.063 224.03 267.701 225.214 266.813C226.226 266.053 227.503 265.651 228.92 265.878C230.449 266.123 231.906 267.062 232.909 268.17C233.245 268.541 233.507 268.962 233.772 269.38C234.266 270.162 234.747 270.889 235.428 271.464C235.687 271.682 236.076 271.834 236.453 271.834C236.607 271.834 236.762 271.81 236.91 271.765C238.432 270.302 238.725 269.191 238.676 268.09C238.624 266.935 238.149 265.766 237.381 264.675C235.58 262.115 232.16 260.017 229.853 259.541C226.692 258.891 223.554 259.672 221.037 261.363C218.448 263.104 216.529 265.806 215.931 268.852C215.787 269.585 215.848 270.377 216.14 271.063C216.425 271.734 216.921 272.309 217.65 272.672ZM280.993 240.66C282.89 242.431 285.135 242.705 287.406 242.949C288.668 243.086 289.675 243.196 290.666 243.411C293.391 244 296.084 244.888 298.541 246.166C301.109 247.503 303.908 249.114 305.922 251.179C306.401 251.67 306.852 252.186 307.304 252.703C307.716 253.174 308.113 253.627 308.532 254.065C309.012 254.567 309.469 255.093 309.923 255.618C310.203 256.062 310.259 256.171 310.315 256.284C310.4 256.454 310.499 256.645 310.612 256.85C310.767 257.13 310.948 257.437 311.138 257.715C311.454 258.224 311.624 258.364 311.77 258.426C312.013 258.53 312.243 258.581 312.467 258.553C312.677 258.528 312.874 258.431 313.069 258.273C314.043 257.485 314.33 256.191 314.301 254.817C314.256 252.733 313.454 250.426 312.714 249.007C310.995 245.711 308.61 242.284 305.743 239.824C302.471 237.016 298.891 234.89 294.78 233.426C292.225 232.515 289.266 231.679 286.483 231.785C284.479 231.861 282.566 232.431 280.986 233.857C280.016 234.732 279.551 235.976 279.551 237.22C279.551 238.489 280.034 239.765 280.993 240.66ZM213.793 256.876C213.913 257.066 214.08 257.196 214.266 257.275C214.461 257.357 214.678 257.38 214.887 257.347C215.094 257.313 215.292 257.223 215.448 257.085C215.599 256.953 215.713 256.778 215.764 256.563C217.023 251.263 219.468 247.32 224.687 244.777C227.254 243.526 230.206 242.731 233.001 242.097C233.813 241.913 234.671 241.794 235.535 241.673C238.243 241.294 240.971 240.86 242.737 238.762C243.801 237.499 244.247 235.882 243.995 234.404C243.757 233.013 242.908 231.737 241.366 230.972C237.525 229.069 232.753 230.936 228.875 232.527C228.587 232.645 228.305 232.761 228.028 232.873C224.236 234.407 220.777 236.432 217.934 239.328C215.678 241.625 213.587 245.022 212.745 248.515C212.045 251.422 212.21 254.39 213.793 256.876Z" fill="black"/>
<path fill-rule="evenodd" clip-rule="evenodd" d="M235.588 340.18C240.9 335.645 246.855 326.527 254.486 333.741C256.374 335.78 257.138 340.35 260.025 341.246C263.858 342.438 267.657 338.551 268.963 335.567C274.308 318.983 252.213 314.434 239.626 317.114C233.477 319.534 228.948 329.275 228.674 334.358C228.497 337.775 231.515 342.799 235.588 340.18ZM195.51 314.619C195.562 314.399 195.634 314.2 195.722 314.019C198.071 313.168 199.93 314.036 201.079 315.657C201.041 316.06 200.916 316.469 200.837 316.868C201.723 318.658 202.523 320.872 203.724 322.419C203.961 322.436 204.207 322.412 204.443 322.347C224.358 324.34 214.636 304.371 234.835 299.412C250.449 296.943 278.67 299.771 286.036 315.345C291.845 340.222 321.383 322.888 331.082 309.95C341.43 298.176 348.121 283.789 354.572 269.828C355.936 266.873 360.19 268.986 359.728 271.821C365.691 283.284 365.492 297.054 366.969 309.613C369.481 334.668 371.929 369.805 347.636 385.104C315.985 419.387 236.949 431.486 200.443 399.985C187.806 373.948 189.364 342.185 195.51 314.619Z" fill="black"/>
<path fill-rule="evenodd" clip-rule="evenodd" d="M216.299 238.335C202.91 238.335 195.27 241.095 192.47 241.31L192.385 241.315C191.221 241.387 190.176 241.48 189.08 241.886C185.05 243.374 184.393 247.425 186.745 249.978C186.91 255.26 186.185 261.432 187.429 266.732C188.964 289.074 199.928 292.844 206.16 294.22C209.289 294.911 212.997 295.186 216.321 294.457C221.991 294.254 227.596 292.553 232.392 289.591C239.071 285.463 244.032 279.118 245.642 271.588C246.405 267.998 246.761 264.262 246.346 260.613L246.285 260.111C248.456 259.116 250.972 258.927 253.565 258.839C254.804 258.797 256.025 258.759 257.211 258.81C258.371 258.934 259.516 259.099 260.665 259.324C261.92 259.687 263.105 260.286 264.2 261.234L264.275 262.619C264.481 266.077 264.954 269.545 265.685 272.938C266.764 277.944 268.5 282.725 272.193 286.275C273.443 288.065 274.99 289.662 276.868 291.045C283.691 296.079 292.96 297.927 301.467 297.231C318.738 295.819 328.721 282.681 331.021 277.065L331.159 276.725C332.821 272.55 334.145 267.133 339.396 266.236L340.513 266.044C342.91 265.612 345.121 265.012 346.526 262.772C347.142 261.794 347.459 260.7 347.536 259.584C348.356 259.645 349.175 259.702 349.991 259.758C356.498 261.077 395.531 262.195 398.646 262.195C398.646 262.195 404.635 264.611 407.164 262.739C408.916 261.438 409.493 259.703 408.528 257.738C407.072 254.782 400.357 253.003 397.374 252.44C397.374 252.44 349.251 252.823 345.787 252.194C343.644 250.076 339.811 250.366 336.608 250.031C333.956 248.219 330.247 247.006 327.316 246.193C326.719 245.977 326.128 245.767 325.553 245.569C320.181 243.736 314.597 242.765 308.929 242.244C303.083 241.711 297.22 241.952 291.409 242.715C288.96 243.033 286.533 243.445 284.124 243.984C279.811 244.529 275.522 245.426 271.207 246.491L270.343 246.706C265.799 247.848 261.13 248.835 256.426 248.061C252.596 247.435 248.913 246.023 245.382 244.496L244.923 244.296C237.159 240.899 225.034 238.335 216.299 238.335ZM284.591 250.756C287.456 250.153 288.679 254.385 285.805 254.991C283.77 255.419 282.046 256.403 280.881 258.069L280.758 258.25C279.194 260.634 275.24 258.433 276.815 256.033C278.586 253.333 281.339 251.441 284.591 250.756ZM200.69 248.132C201.7 247.45 203.228 247.956 203.814 248.92C204.46 249.981 204.037 251.162 203.091 251.856L202.995 251.923C202.127 252.509 201.282 253.56 201.176 254.636L201.167 254.77C201.053 257.587 196.485 257.601 196.6 254.77C196.711 252.001 198.384 249.688 200.69 248.132Z" fill="black"/>
</svg>
